<svg width="547" height="424" viewBox="0 0 547 424" fill="none" xmlns="http://www.w3.org/2000/svg">
<path d="M265.678 405.627L19.9108 255.474C12.0887 250.937 5.37428 243.475 13.0049 238.599L259.661 91.6123C263.367 89.2379 268.987 87.6832 272.748 89.9445L530.74 244.761C538.562 249.453 539.971 262.569 532.108 267.275L298.115 405.358C293.199 408.317 287.62 409.898 281.931 409.945C276.242 409.992 270.64 408.504 265.678 405.627Z" fill="#FFBE30"/>
<path opacity="0.32" d="M236.031 320.897C230.834 322.537 225.638 324.162 220.304 325.265C217.049 325.864 213.76 326.256 210.458 326.438L204.988 322.565L168.476 295.189L200.831 277.48L265.268 308.036C256.639 314.509 246.068 317.717 236.031 320.897Z" fill="url(#paint0_linear_1_3)"/>
<path d="M124.648 117.575V253.439L284.358 156.244V18.656L124.648 117.575Z" fill="#68E1FD"/>
<path opacity="0.32" d="M399.31 314.481C394.113 316.12 388.917 317.746 383.584 318.848C380.328 319.448 377.04 319.839 373.738 320.021L368.268 316.149L331.755 288.772L364.111 271.063L428.547 301.619C419.959 308.107 409.375 311.301 399.31 314.481Z" fill="url(#paint1_linear_1_3)"/>
<path d="M362.497 255.432C364.368 253.958 366.52 252.911 368.811 252.361C371.103 251.81 373.481 251.768 375.789 252.238C381.013 253.425 385.539 256.817 390.831 257.651C391.679 257.778 395.03 257.552 395.549 258.061C410.359 272.547 368.965 270.993 368.965 270.993C364.945 267.586 361.17 264.251 357.177 260.802C358.394 258.032 360.432 256.93 362.497 255.432Z" fill="#F8997C"/>
<path d="M381.984 276.434L383.461 320.134C383.461 321.788 381.027 321.788 380.972 320.134L379.495 276.434C379.427 274.78 381.929 274.78 381.984 276.434Z" fill="#844040"/>
<path d="M350.942 299.825C358.481 292.202 365.683 284.245 372.548 275.953C373.587 274.695 375.283 276.519 374.312 277.777C367.456 286.059 360.254 294.016 352.706 301.648C351.557 302.807 349.793 301.04 350.942 299.825Z" fill="#844040"/>
<path d="M390.626 272.392C396.479 283.811 401.99 295.406 407.159 307.174C407.816 308.672 405.669 310.001 405.013 308.474C399.843 296.706 394.332 285.112 388.479 273.692C387.714 272.222 389.874 270.922 390.626 272.392Z" fill="#844040"/>
<path d="M357.888 259.516C360.382 263.043 363.891 265.664 367.912 267.007C373.574 268.759 381.806 267.94 384.773 261.905C390.243 250.951 385.102 237.228 390.818 226.571C391.485 225.218 392.42 224.026 393.563 223.071C394.706 222.117 396.03 221.422 397.45 221.031C401.156 220.211 403.7 223.038 405.04 226.374C407.447 232.352 407.365 239.8 407.241 246.16C407.237 251.307 406.871 256.446 406.147 261.537C406.147 261.537 402.688 282.907 375.693 277.169C371.025 276.306 366.537 274.613 362.429 272.166C360.311 270.943 358.451 269.294 356.959 267.318C355.372 264.887 356.466 261.975 357.888 259.516Z" fill="#68E1FD"/>
<path d="M381.738 198.729L382.476 203.647H390.093L391.283 198.093" fill="#F7931E"/>
<path d="M339.14 280.024C339.14 280.024 339.359 283.925 338.196 285.013C337.034 286.101 330.73 283.077 329.062 284.151C327.393 285.225 335.379 293.041 338.196 293.465C341.013 293.889 343.666 289.747 343.666 289.747V295.627L346.853 297.507L349.205 296.093L348.507 280.052L339.14 280.024Z" fill="#FF9F9F"/>
<path d="M349.998 282.893C346.648 285.875 343.037 285.719 338.866 283.939C335.872 278.497 332.344 245.341 339.837 240.041C347.878 234.387 360.446 235.362 362.552 235.984L393.348 241.199C395.713 245.355 389.45 267.12 375.775 267.728C362.1 268.335 353.362 263.021 353.362 263.021L349.998 282.893Z" fill="#124577"/>
<path d="M361.964 191.931C363.427 192.599 364.638 193.746 365.41 195.195V195.309C367.584 197.146 367.912 200.481 370.21 202.135C370.21 202.135 372.37 203.774 372.398 203.831C372.425 203.887 372.192 200.764 372.192 200.792C372.945 202.912 373.669 205.032 374.312 207.181C374.21 207.248 374.1 207.3 373.984 207.336L374.23 207.463L374.435 207.59C374.463 207.698 374.515 207.797 374.586 207.88C374.657 207.964 374.746 208.029 374.845 208.071C374.931 208.385 374.928 208.717 374.835 209.029C374.743 209.34 374.566 209.618 374.325 209.828C374.084 210.038 373.79 210.172 373.477 210.214C373.164 210.256 372.846 210.204 372.562 210.064L365.601 206.545C364.671 206.341 363.757 206.067 362.866 205.725C362.866 204.976 362.757 204.227 362.688 203.478C362.14 202.601 361.81 201.597 361.729 200.556C361.648 199.515 361.818 198.47 362.223 197.513L362.1 197.386V197.301C361.525 196.885 361.035 196.354 360.659 195.74C360.284 195.126 360.03 194.442 359.912 193.726C359.858 192.694 360.856 191.394 361.964 191.931Z" fill="#F7931E"/>
<path d="M370.825 198.729C370.825 198.729 362.88 203.817 362.059 208.071C362.059 208.071 367.639 220.593 367.256 221.088C360.952 229.568 379.85 215.717 379.85 215.717C379.85 215.717 376.063 203.831 370.825 198.729Z" fill="#68E1FD"/>
<path d="M370.825 198.729C370.825 198.729 362.88 203.817 362.059 208.071C362.059 208.071 367.639 220.593 367.256 221.088C360.952 229.568 379.85 215.717 379.85 215.717C379.85 215.717 376.063 203.831 370.825 198.729Z" fill="#FF9F9F"/>
<path d="M395.358 207.011C392.322 199.181 386.565 201.725 385.416 201.725C374.107 201.725 369.362 208.693 366.353 213.272C366.357 213.314 366.357 213.357 366.353 213.399C364.879 218.699 364.007 224.158 363.755 229.667C363.564 232.295 363.523 234.981 363.167 237.595C362.88 239.631 361.95 242.132 363.167 244.054C363.782 245.058 365.382 245.326 366.381 245.736C368.41 246.563 370.512 247.183 372.657 247.588C376.051 248.238 379.534 248.2 382.914 247.475C386.456 246.683 391.515 244.789 393.361 241.214C395.358 237.285 398.394 214.827 395.358 207.011Z" fill="#FF9F9F"/>
<path d="M375.57 184.044C375.57 184.242 374.394 196.524 377.047 199.223C379.7 201.923 386.77 200.806 388.52 197.81C390.271 194.814 392.418 190.955 390.544 186.376C388.671 181.797 375.885 181.02 375.57 184.044Z" fill="#F7931E"/>
<path d="M383.05 188.482C385.088 191.224 382.49 194.983 383.05 197.966C384.213 204.792 392.459 201.683 395.249 198.277C396.221 197.072 397.06 195.759 397.751 194.362C398.613 192.67 398.874 190.72 398.489 188.85C398.275 187.779 397.973 186.73 397.587 185.712C394.948 179.055 387.044 176.031 380.603 177.84C378.959 178.161 377.495 179.117 376.51 180.514C375.524 181.911 375.09 183.643 375.297 185.359C377.621 186.291 381.368 186.221 383.05 188.482Z" fill="#124577"/>
<path d="M381.314 193.514C381.227 193.298 381.201 193.061 381.24 192.831C381.279 192.6 381.38 192.386 381.532 192.213C382.347 191.17 383.48 190.443 384.746 190.15C385.32 190.009 385.924 190.091 386.443 190.38C386.963 190.67 387.361 191.146 387.563 191.719C388.384 194.545 384.008 195.323 382.216 195.563C381.901 195.563 381.598 195.433 381.375 195.203C381.152 194.972 381.027 194.659 381.027 194.333C381.018 194.184 381.039 194.034 381.088 193.893C381.138 193.752 381.214 193.623 381.314 193.514Z" fill="#F7931E"/>
<path d="M399.488 187.691C402.463 187.691 404.876 185.198 404.876 182.122C404.876 179.047 402.463 176.554 399.488 176.554C396.512 176.554 394.1 179.047 394.1 182.122C394.1 185.198 396.512 187.691 399.488 187.691Z" fill="#124577"/>
<path d="M375.461 223.844C375.461 223.844 373.505 245.256 371.782 246.457C370.059 247.658 362.059 244.973 362.059 244.973C362.059 244.973 371.577 239.023 375.461 223.844Z" fill="#DD6C6C"/>
<path d="M349.848 235.49C349.848 235.49 346.196 234.218 344.555 235.49C342.914 236.762 339.837 239.899 340.453 241.143C341.068 242.387 343.53 241.143 343.53 241.143C344.366 240.984 345.223 240.984 346.06 241.143C346.607 241.454 350.887 243.489 352.213 242.556C353.54 241.623 353.061 236.705 349.848 235.49Z" fill="#F7931E"/>
<path d="M365.122 218.657C365.122 218.657 362.169 227.858 359.393 229.229C356.626 230.197 353.778 230.902 350.887 231.334C349.699 235.116 349.235 239.1 349.519 243.065C356.685 244.902 365.341 245.383 368.377 242.768C372.78 238.995 375.857 221.738 375.857 221.738L365.122 218.657Z" fill="#FF9F9F"/>
<path d="M356.685 262.018C356.792 261.742 356.965 261.499 357.189 261.311C357.412 261.124 357.677 260.998 357.96 260.946C358.243 260.894 358.535 260.916 358.807 261.013C359.079 261.109 359.323 261.275 359.516 261.495C361.792 264.063 364.684 265.964 367.899 267.007C373.56 268.759 381.792 267.94 384.76 261.905C390.148 250.98 385.129 237.327 390.736 226.685C391.7 224.768 393.158 223.164 394.948 222.049C400.007 219.024 403.385 222.331 405.012 226.359C407.419 232.338 407.337 239.786 407.214 246.146C407.209 251.292 406.844 256.432 406.12 261.523C406.12 261.523 402.66 282.893 375.666 277.155C370.998 276.292 366.51 274.599 362.401 272.151C360.284 270.928 358.424 269.28 356.931 267.304C356.462 266.516 356.193 265.618 356.15 264.694C356.107 263.769 356.291 262.849 356.685 262.018Z" fill="#68E1FD"/>
<path opacity="0.32" d="M328.802 356.853C323.605 358.492 318.409 360.117 313.075 361.22C309.82 361.819 306.532 362.211 303.229 362.393L297.759 358.52L261.193 331.144L293.548 313.435L357.984 343.991C349.424 350.507 338.839 353.687 328.802 356.853Z" fill="url(#paint2_linear_1_3)"/>
<path d="M291.948 297.818C293.819 296.344 295.971 295.297 298.262 294.746C300.553 294.196 302.932 294.154 305.24 294.623C310.464 295.811 314.99 299.203 320.282 300.037C321.13 300.164 324.48 299.938 325 300.446C339.81 314.933 298.416 313.378 298.416 313.378C294.395 309.972 290.621 306.637 286.628 303.188C287.859 300.404 289.91 299.302 291.948 297.818Z" fill="#F8997C"/>
<path d="M311.434 318.806L312.911 362.506C312.911 364.159 310.477 364.159 310.422 362.506L308.946 318.806C308.891 317.152 311.38 317.152 311.434 318.806Z" fill="#844040"/>
<path d="M280.337 342.196C287.877 334.574 295.079 326.617 301.944 318.325C302.983 317.067 304.679 318.89 303.708 320.148C296.852 328.43 289.65 336.387 282.102 344.019C281.008 345.178 279.243 343.355 280.337 342.196Z" fill="#844040"/>
<path d="M320.077 314.763C325.93 326.183 331.441 337.777 336.61 349.546C337.267 351.044 335.12 352.372 334.463 350.846C329.294 339.078 323.783 327.483 317.93 316.064C317.178 314.608 319.325 313.294 320.077 314.763Z" fill="#844040"/>
<path d="M287.339 301.888C289.833 305.414 293.341 308.036 297.363 309.379C303.024 311.131 311.257 310.311 314.224 304.277C319.694 293.323 314.552 279.6 320.268 268.943C320.936 267.59 321.871 266.397 323.014 265.443C324.156 264.488 325.481 263.793 326.901 263.403C330.607 262.583 333.15 265.41 334.491 268.745C336.897 274.724 336.815 282.172 336.692 288.532C336.687 293.678 336.322 298.817 335.598 303.909C335.598 303.909 332.138 325.279 305.144 319.541C300.476 318.678 295.988 316.985 291.879 314.537C289.762 313.314 287.902 311.666 286.409 309.69C284.823 307.259 285.917 304.361 287.339 301.888Z" fill="#68E1FD"/>
<path d="M268.659 322.395C268.659 322.395 268.878 326.296 267.715 327.385C266.553 328.473 260.249 325.448 258.581 326.522C256.912 327.597 264.898 335.412 267.715 335.836C270.533 336.26 273.185 332.119 273.185 332.119V337.999L276.372 339.878L278.724 338.465L278.026 322.424L268.659 322.395Z" fill="#8787D1"/>
<path d="M279.449 325.265C276.098 328.247 272.488 328.091 268.317 326.31C265.322 320.869 261.794 287.712 269.288 282.412C277.329 276.759 289.896 277.734 292.002 278.356L322.798 283.571C325.164 287.726 318.901 309.492 305.226 310.099C291.551 310.707 282.813 305.393 282.813 305.393L279.449 325.265Z" fill="#124577"/>
<path d="M291.428 234.302C292.892 234.971 294.103 236.118 294.874 237.567V237.68C297.048 239.518 297.377 242.853 299.674 244.507C299.674 244.507 301.835 246.146 301.862 246.203C301.889 246.259 301.657 243.136 301.657 243.164C302.409 245.284 303.134 247.404 303.776 249.552C303.675 249.62 303.564 249.672 303.448 249.708L303.694 249.835L303.9 249.962C303.927 250.07 303.979 250.169 304.05 250.252C304.121 250.335 304.21 250.401 304.31 250.443C304.395 250.756 304.392 251.089 304.3 251.4C304.207 251.712 304.03 251.989 303.789 252.2C303.548 252.41 303.254 252.544 302.941 252.586C302.629 252.628 302.311 252.575 302.026 252.435L295.065 248.916C294.136 248.713 293.221 248.439 292.33 248.097C292.33 247.347 292.221 246.598 292.153 245.849C291.604 244.972 291.275 243.969 291.194 242.928C291.113 241.887 291.282 240.841 291.688 239.885L291.565 239.758V239.673C290.989 239.257 290.499 238.726 290.124 238.112C289.748 237.498 289.494 236.813 289.377 236.097C289.322 235.08 290.32 233.765 291.428 234.302Z" fill="#F7931E"/>
<path d="M300.276 241.101C300.276 241.101 292.33 246.189 291.51 250.443C291.51 250.443 297.089 262.965 296.706 263.459C290.402 271.939 309.301 258.089 309.301 258.089C309.301 258.089 305.486 246.203 300.276 241.101Z" fill="#68E1FD"/>
<path d="M282.211 244.224C281.555 249.877 288.556 257.792 291.496 259.304C295.599 261.396 297.117 244.026 314.881 244.097C316.029 244.097 321.786 241.567 324.822 249.383C327.858 257.198 324.822 279.656 322.798 283.557C321.021 287.006 309.123 295.302 292.248 286.384L292.002 278.299C292.002 278.299 282.02 278.073 276.727 270.484C271.804 263.417 268.864 252.775 269.329 247.559C273.336 245.821 278.286 242.881 282.211 244.224Z" fill="#68E1FD"/>
<path d="M300.276 241.101C300.276 241.101 292.33 246.189 291.51 250.443C291.51 250.443 297.089 262.965 296.706 263.459C290.402 271.939 309.301 258.089 309.301 258.089C309.301 258.089 305.486 246.203 300.276 241.101Z" fill="#8787D1"/>
<path d="M269.589 242.98C269.644 243.039 269.709 243.087 269.78 243.122C269.726 244.836 269.68 246.556 269.644 248.28C269.644 249.142 270.929 249.029 270.943 248.167V247.941C271.122 247.985 271.311 247.957 271.471 247.863C271.631 247.768 271.75 247.614 271.804 247.432V247.263C271.906 247.31 272.019 247.328 272.131 247.313C272.242 247.298 272.347 247.251 272.433 247.178C272.616 247.154 272.783 247.058 272.898 246.909C272.965 246.998 273.05 247.07 273.147 247.121C273.244 247.173 273.35 247.201 273.459 247.206V247.814C273.459 248.563 274.662 248.648 274.744 247.885V247.347C274.936 247.913 275.948 247.913 276.003 247.234V246.485C276.082 246.463 276.156 246.424 276.221 246.372V246.499C276.243 246.655 276.316 246.797 276.428 246.903C276.54 247.009 276.685 247.071 276.836 247.079C276.988 247.088 277.137 247.041 277.259 246.949C277.382 246.856 277.469 246.722 277.507 246.57L277.589 246.231C277.662 246.272 277.743 246.297 277.825 246.305C277.908 246.313 277.992 246.304 278.071 246.277C278.151 246.251 278.224 246.208 278.287 246.151C278.349 246.095 278.4 246.026 278.437 245.948C279.315 244.167 280.012 242.296 280.515 240.366C280.736 239.692 280.744 238.963 280.537 238.285C280.331 237.606 279.921 237.013 279.367 236.592C279.31 236.536 279.244 236.492 279.171 236.463C279.098 236.434 279.021 236.42 278.943 236.422C279.025 235.504 279.12 234.571 279.23 233.596C279.361 232.948 279.452 232.291 279.503 231.631C279.633 231.164 279.605 230.665 279.421 230.218C279.271 229.554 278.915 228.974 278.163 229.115C277.001 229.342 276.536 231.122 276.249 232.098C275.945 233.067 275.694 234.053 275.497 235.051C275.35 234.886 275.173 234.751 274.977 234.656C274.64 234.535 274.277 234.522 273.933 234.618C273.589 234.714 273.281 234.914 273.049 235.193L272.953 235.32C272.811 235.157 272.645 235.018 272.461 234.91C272.171 234.723 271.832 234.631 271.491 234.646C271.149 234.661 270.82 234.783 270.546 234.995C270.203 235.271 269.962 235.66 269.862 236.097C269.636 236.006 269.393 235.966 269.151 235.98C268.908 235.995 268.671 236.064 268.457 236.182C268.243 236.3 268.055 236.465 267.909 236.665C267.762 236.865 267.658 237.096 267.606 237.341C267.182 239.263 268.345 241.567 269.589 242.98ZM274.922 236.126H274.539C274.519 236.066 274.491 236.009 274.457 235.956C274.513 235.929 274.574 235.916 274.635 235.916C274.696 235.916 274.757 235.929 274.813 235.956L274.922 236.126Z" fill="#F7931E"/>
<path d="M305.486 223.42C305.486 223.603 304.392 235.094 306.853 237.553C309.315 240.012 315.947 239.037 317.588 236.281C319.229 233.525 321.239 229.879 319.489 225.596C317.739 221.314 305.773 220.593 305.486 223.42Z" fill="#F7931E"/>
<path d="M309.055 230.882C308.972 230.682 308.945 230.461 308.979 230.246C309.013 230.03 309.106 229.829 309.246 229.667C310.007 228.696 311.062 228.019 312.241 227.745C312.77 227.61 313.329 227.68 313.812 227.94C314.295 228.2 314.67 228.633 314.867 229.158C315.633 231.758 311.544 232.522 309.862 232.748C309.569 232.744 309.289 232.622 309.083 232.408C308.876 232.194 308.758 231.905 308.754 231.603C308.759 231.331 308.867 231.072 309.055 230.882Z" fill="#FFE8E6"/>
<path d="M282.211 244.224C281.555 249.877 288.556 257.792 291.496 259.304C295.599 261.396 297.117 244.026 314.881 244.097C316.029 244.097 321.786 241.567 324.822 249.383C327.858 257.198 324.822 279.656 322.798 283.557C321.021 287.006 309.123 295.302 292.248 286.384L292.002 278.299C292.002 278.299 282.02 278.073 276.727 270.484C271.804 263.417 268.864 252.775 269.329 247.559C273.336 245.821 278.286 242.881 282.211 244.224Z" fill="#8787D1"/>
<path d="M283.606 276.363C288.217 278.074 293.249 278.136 297.898 276.54C302.547 274.943 306.543 271.781 309.246 267.558C309.602 266.993 310.477 267.558 310.122 268.081C307.304 272.498 303.136 275.811 298.282 277.492C293.428 279.173 288.169 279.124 283.346 277.353C282.731 277.155 282.99 276.137 283.606 276.363Z" fill="white"/>
<path d="M293.589 257.368C294.494 255.185 295.836 253.224 297.527 251.616C299.455 249.793 301.862 248.634 303.872 246.923C304.282 246.584 304.857 247.178 304.447 247.517C302.532 249.128 300.344 250.245 298.416 251.913C296.636 253.527 295.234 255.537 294.313 257.792C294.081 258.287 293.37 257.863 293.589 257.368Z" fill="white"/>
<path d="M305.226 225.031L308.768 226.953C308.768 226.953 306.033 237.709 305.212 240.535C304.392 243.362 307.674 247.333 318.354 247.602C329.034 247.87 328.487 231.193 326.026 224.989C323.564 218.784 316.166 215.929 310.149 217.625C308.554 217.948 307.144 218.904 306.224 220.289C305.303 221.674 304.945 223.376 305.226 225.031Z" fill="#FFAE2C"/>
<path d="M286.149 304.404C286.257 304.128 286.43 303.885 286.653 303.697C286.876 303.51 287.141 303.384 287.425 303.332C287.708 303.279 287.999 303.302 288.271 303.398C288.543 303.494 288.787 303.66 288.98 303.881C291.256 306.449 294.148 308.35 297.363 309.393C303.024 311.145 311.257 310.326 314.224 304.291C319.612 293.366 314.593 279.713 320.2 269.07C321.164 267.154 322.622 265.55 324.412 264.435C329.472 261.41 332.85 264.717 334.477 268.745C336.884 274.724 336.802 282.172 336.679 288.532C336.674 293.678 336.308 298.817 335.585 303.909C335.585 303.909 332.125 325.279 305.13 319.541C300.462 318.678 295.974 316.985 291.866 314.537C289.748 313.314 287.888 311.666 286.396 309.69C285.926 308.902 285.658 308.004 285.615 307.079C285.572 306.155 285.756 305.235 286.149 304.404Z" fill="#68E1FD"/>
<path d="M203.361 98.2408L239.641 76.32C239.953 76.0874 240.17 75.7427 240.249 75.3534C240.328 74.9642 240.264 74.5583 240.069 74.2154C239.874 73.8724 239.562 73.617 239.195 73.4991C238.827 73.3813 238.43 73.4095 238.082 73.5781L201.802 95.4989C201.49 95.7316 201.273 96.0762 201.194 96.4655C201.114 96.8548 201.178 97.2606 201.373 97.6036C201.568 97.9465 201.88 98.2019 202.248 98.3198C202.615 98.4376 203.012 98.4095 203.361 98.2408Z" fill="#FFBE30"/>
<path d="M203.279 106.085L239.559 84.2205C239.733 84.111 239.884 83.9671 240.005 83.7971C240.125 83.627 240.212 83.4341 240.26 83.2294C240.309 83.0246 240.317 82.8121 240.286 82.6038C240.255 82.3956 240.184 82.1958 240.078 82.0157C239.972 81.8357 239.833 81.679 239.669 81.5546C239.504 81.4302 239.317 81.3404 239.119 81.2906C238.921 81.2407 238.716 81.2316 238.514 81.2639C238.313 81.2962 238.119 81.3692 237.945 81.4787L201.72 103.343C201.408 103.576 201.191 103.92 201.111 104.31C201.032 104.699 201.096 105.105 201.291 105.448C201.486 105.791 201.798 106.046 202.166 106.164C202.533 106.282 202.93 106.253 203.279 106.085Z" fill="#053855"/>
<path d="M203.279 113.929L239.559 92.0645C239.733 91.955 239.884 91.8111 240.005 91.6411C240.125 91.471 240.212 91.2781 240.26 91.0734C240.309 90.8686 240.317 90.6561 240.286 90.4478C240.255 90.2396 240.184 90.0398 240.078 89.8597C239.972 89.6797 239.833 89.523 239.669 89.3986C239.504 89.2742 239.317 89.1844 239.119 89.1346C238.921 89.0847 238.716 89.0756 238.514 89.1079C238.313 89.1402 238.119 89.2132 237.945 89.3227L201.72 111.173C201.408 111.405 201.191 111.75 201.111 112.139C201.032 112.529 201.096 112.934 201.291 113.277C201.486 113.62 201.798 113.876 202.166 113.994C202.533 114.112 202.93 114.083 203.279 113.915V113.929Z" fill="#FF9F9F"/>
<path d="M203.279 121.773L239.559 99.9085C239.91 99.6874 240.163 99.3308 240.26 98.9174C240.358 98.5039 240.292 98.0673 240.078 97.7037C239.864 97.3401 239.519 97.0793 239.119 96.9786C238.719 96.8779 238.297 96.9455 237.945 97.1667L201.72 119.017C201.408 119.249 201.191 119.594 201.111 119.983C201.032 120.373 201.096 120.778 201.291 121.121C201.486 121.464 201.798 121.72 202.166 121.838C202.533 121.956 202.93 121.927 203.279 121.759V121.773Z" fill="white"/>
<path d="M270.394 80.4496C273.637 70.8469 271.572 61.3693 265.782 59.2807C259.992 57.1921 252.669 63.2835 249.426 72.8861C246.184 82.4888 248.249 91.9664 254.039 94.055C259.829 96.1436 267.151 90.0523 270.394 80.4496Z" fill="white"/>
<path d="M259.921 76.6875V56.6323C259.921 56.6323 270.191 53.0424 273.227 68.1509L259.921 76.6875Z" fill="#053855"/>
<path d="M259.921 76.6875L269.493 85.9448C269.493 85.9448 273.924 82.3691 273.268 68.1509L259.921 76.6875Z" fill="#FF9F9F"/>
<path d="M268.96 101.958V150.011C268.96 150.573 269.176 151.113 269.561 151.51C269.945 151.908 270.467 152.131 271.011 152.131C271.555 152.131 272.077 151.908 272.462 151.51C272.846 151.113 273.062 150.573 273.062 150.011V101.958C273.062 101.396 272.846 100.856 272.462 100.459C272.077 100.061 271.555 99.8379 271.011 99.8379C270.467 99.8379 269.945 100.061 269.561 100.459C269.176 100.856 268.96 101.396 268.96 101.958Z" fill="#FFEED9"/>
<path d="M260.687 117.208V155.156C260.687 155.718 260.903 156.257 261.287 156.655C261.672 157.052 262.194 157.276 262.738 157.276C263.282 157.276 263.804 157.052 264.188 156.655C264.573 156.257 264.789 155.718 264.789 155.156V117.208C264.789 116.645 264.573 116.106 264.188 115.709C263.804 115.311 263.282 115.088 262.738 115.088C262.194 115.088 261.672 115.311 261.287 115.709C260.903 116.106 260.687 116.645 260.687 117.208Z" fill="#FFEED9"/>
<path d="M251.538 136.471V160.498C251.538 161.06 251.754 161.6 252.139 161.997C252.523 162.395 253.045 162.618 253.589 162.618C254.133 162.618 254.655 162.395 255.04 161.997C255.424 161.6 255.64 161.06 255.64 160.498V136.471C255.64 135.909 255.424 135.37 255.04 134.972C254.655 134.575 254.133 134.351 253.589 134.351C253.045 134.351 252.523 134.575 252.139 134.972C251.754 135.37 251.538 135.909 251.538 136.471Z" fill="#FFEED9"/>
<path d="M137.201 223.9C136.394 220.749 137.201 159.806 157.003 155.17C176.804 150.534 173.672 209.597 183.245 188.397C192.817 167.197 177.214 146.393 195.252 144.909C213.289 143.425 206.711 187.309 216.872 176.002C227.032 164.696 222.342 137.517 234.225 137.531C246.109 137.546 243.21 163.819 243.21 163.819" stroke="#FFEED9" stroke-miterlimit="10"/>
<path d="M228.81 138.917C230.736 136.148 232.494 133.259 234.075 130.267C234.731 128.415 231.34 126.027 228.208 125.829C225.077 125.631 224.735 129.306 224.735 129.306C224.336 129.187 223.91 129.219 223.532 129.395C223.154 129.571 222.848 129.88 222.67 130.267C221.904 131.68 223.819 136.005 224.038 136.132L220.386 140.754L226.472 143.835L228.81 138.917Z" fill="#EF986C"/>
<path d="M188.195 285.946C188.195 283.26 188.072 280.561 188.045 277.875L199.491 280.193C199.491 280.193 198.917 284.773 200.175 286.412C201.433 288.051 210.964 292.871 212.099 294.397C213.234 295.924 213.576 298.793 206.875 298.524C200.175 298.256 194.828 293.45 193.351 293.097C191.874 292.744 188.838 292.32 187.881 291.613C187.949 289.733 188.195 287.825 188.195 285.946Z" fill="#2A343D"/>
<path d="M168.722 289.352C168.722 286.666 168.599 283.967 168.572 281.282L180.018 283.599C180.018 283.599 179.443 288.179 180.701 289.818C181.96 291.458 191.491 296.277 192.626 297.803C193.761 299.33 194.103 302.199 187.402 301.93C180.701 301.662 175.355 296.857 173.878 296.503C172.401 296.15 169.365 295.726 168.408 295.019C168.476 293.139 168.736 291.231 168.722 289.352Z" fill="#2A343D"/>
<path d="M173.96 173.953L179.758 175.041C179.708 174.288 179.708 173.533 179.758 172.78C180.975 172.709 182.192 172.596 183.395 172.441C186.787 172.017 189.577 168.498 192.763 167.197C194.13 173.995 194.513 188.835 196.113 199.619C198.151 213.272 204.318 276.632 202.595 281.889C202.595 281.889 202.663 283.783 192.065 284.391C192.065 284.391 189.536 285.889 185.83 280.49L182.083 213.018L183.806 285.409C180.606 288.447 175.792 289.861 166.958 285.295L162.664 193.627L173.96 173.953Z" fill="#35406E"/>
<path d="M182.63 169.6C181.718 169.704 180.806 169.784 179.895 169.84C180.619 156.979 184.489 128.246 192.776 167.127C189.531 168.464 186.111 169.298 182.63 169.6Z" fill="#35406E"/>
<path d="M167.491 225.723C167.769 223.53 167.327 221.303 166.236 219.4C165.146 217.496 163.469 216.025 161.474 215.222C154.295 212.24 154.445 224.946 154.445 224.946L150.849 223.533C150.849 223.533 148.743 210.106 161.351 211.039C173.96 211.972 172.004 227.066 172.004 227.066L167.491 225.723Z" fill="#CE4823"/>
<path d="M157.618 207.152L157.714 206.686C157.683 206.532 157.683 206.373 157.714 206.219L159.286 194.913C159.299 194.741 159.362 194.577 159.467 194.443C159.572 194.31 159.714 194.212 159.874 194.164C159.914 193.49 160.019 192.823 160.189 192.171C160.59 191.748 161.109 191.466 161.673 191.365C162.238 191.263 162.819 191.348 163.334 191.606C163.868 191.012 165.016 190.913 165.167 191.931C165.317 192.948 165.509 194.362 165.673 195.591L165.768 195.195C165.796 195.065 165.85 194.941 165.925 194.832C166 194.722 166.096 194.63 166.206 194.559C166.466 193.655 166.671 192.722 166.89 191.818C167.204 190.404 169.242 191.026 168.927 192.397C168.818 192.859 168.708 193.33 168.599 193.81C169.351 193.584 170.281 194.135 169.967 195.068C168.705 198.343 167.913 201.79 167.614 205.301C168.12 207.435 168.544 209.541 168.886 211.76C169.091 213.102 169.379 214.926 167.724 215.392C167.586 215.439 167.44 215.457 167.295 215.444C167.15 215.431 167.009 215.387 166.88 215.316C166.752 215.244 166.64 215.147 166.55 215.028C166.46 214.91 166.394 214.774 166.356 214.629C166.037 213.168 165.777 211.699 165.577 210.219C165.422 210.766 165.258 211.307 165.085 211.845C164.76 212.994 164.367 214.122 163.909 215.222C163.635 215.83 163.252 216.353 162.541 216.339C162.331 216.351 162.122 216.309 161.931 216.218C161.74 216.127 161.574 215.989 161.447 215.816C161.328 216.129 161.096 216.381 160.8 216.521C160.504 216.66 160.168 216.676 159.861 216.565C158.931 216.282 158.698 215.265 158.712 214.205C156.045 213.018 157.18 209.484 157.618 207.152Z" fill="#EF986C"/>
<path d="M157.96 189.104C158.624 181.793 159.734 174.533 161.283 167.367C162.473 161.643 163.744 152.103 165.796 146.605C167.396 142.365 171.471 140.952 176.107 140.132C180.788 139.28 185.535 138.873 190.288 138.917C190.484 138.927 190.68 138.893 190.862 138.818C191.231 138.818 191.6 138.959 191.97 139.058C193.337 139.425 194.787 143.694 195.183 144.923C195.878 147.304 196.296 149.762 196.428 152.244C196.988 158.83 195.867 165.219 195.211 171.734C194.937 174.561 195.771 179.098 193.46 181.175C191.532 182.914 188.209 183.705 185.761 184.087C181.36 184.685 176.89 184.431 172.579 183.338L169.844 202.361C164.743 204.41 158.015 202.05 158.015 202.05C157.498 197.752 157.48 193.406 157.96 189.104Z" fill="#CE4823"/>
<path d="M178.418 234.896C178.41 233.722 178.12 232.569 177.574 231.54C177.027 230.511 176.241 229.639 175.286 229.002C167.751 224.027 149.112 211.929 147.936 213.102C146.405 214.516 143.328 241.991 144.504 242.924C145.393 243.616 164.209 253.467 173.44 258.273C173.968 258.548 174.555 258.679 175.145 258.653C175.736 258.627 176.31 258.445 176.813 258.125C177.316 257.805 177.732 257.357 178.02 256.823C178.308 256.29 178.459 255.689 178.459 255.078L178.418 234.896Z" fill="#CE4823"/>
<path d="M190.862 138.803C190.862 138.803 192.366 148.697 183.655 148.697C174.944 148.697 174.493 140.641 174.493 140.641C179.828 139.174 185.347 138.554 190.862 138.803Z" fill="#F2F2F2"/>
<path d="M191.97 139.044C191.97 139.044 204.277 147.524 210.294 148.753C215.244 149.714 221.521 134.832 221.521 134.832L230.041 139.821C230.041 139.821 223.463 161.841 213.002 163.65C202.54 165.459 191.97 155.453 191.97 155.453" fill="#CE4823"/>
<path d="M179.252 136.471C179.334 136.726 179.252 139.637 179.252 139.637L183.19 140.471H187.293L188.045 137.404" fill="#DB784D"/>
<path d="M178.5 137.743C178.5 137.743 180.961 140.287 183.177 140.485C185.05 140.655 187.279 138.196 187.963 137.418C188.005 139.823 187.63 142.217 186.855 144.485C186.486 145.135 186.13 145.559 185.884 145.46C185.023 145.107 183.409 142.733 183.409 142.733C183.409 142.733 181.604 145.559 180.838 145.474C180.072 145.39 177.556 140.782 177.556 140.782L178.5 137.743Z" fill="#35406E"/>
<path d="M173.057 118.805C173.582 118.065 174.342 117.538 175.203 117.316C176.065 117.094 176.975 117.19 177.775 117.589C177.806 117.517 177.847 117.45 177.898 117.391C178.883 116.289 179.266 115.116 180.852 114.678C182.253 114.339 183.717 114.392 185.091 114.833C186.405 115.201 187.525 116.09 188.209 117.307C188.323 117.233 188.457 117.198 188.592 117.208C190.084 117.267 191.494 117.93 192.517 119.053C193.54 120.177 194.095 121.672 194.062 123.214C193.939 125.871 191.915 128.868 189.262 129.023C187.988 129.493 186.631 129.676 185.283 129.56C184.996 129.533 184.721 129.427 184.488 129.252C184.254 129.078 184.07 128.843 183.954 128.57C183.838 128.298 183.795 127.998 183.829 127.702C183.863 127.407 183.973 127.126 184.148 126.889L183.956 126.762H183.806C183.585 127.014 183.284 127.176 182.958 127.218C182.631 127.259 182.301 127.178 182.028 126.988L181.809 126.847C181.478 126.766 181.157 126.647 180.852 126.493L180.483 126.621L180.606 127.016C180.694 127.349 180.673 127.702 180.547 128.022C180.421 128.341 180.196 128.609 179.908 128.783C179.624 128.914 179.317 128.986 179.006 128.995C179.719 130.046 180.654 130.916 181.741 131.539C183.19 132.288 182.37 134.366 181.043 134.366C181.686 134.86 181.44 137.913 180.688 137.475C178.81 136.406 177.168 134.944 175.868 133.182C174.568 131.42 173.639 129.397 173.139 127.242C172.579 125.25 171.717 120.543 173.057 118.805Z" fill="#2A343D"/>
<path d="M190.383 124.981C190.753 124.981 190.766 137.842 185.638 138.705C179.17 139.779 176.749 131.85 176.749 131.85C176.749 131.85 175.806 125.97 179.826 124.006C183.847 122.041 185.761 125.787 190.383 124.981Z" fill="#EF986C"/>
<path d="M190.383 124.981C190.383 124.981 185.283 125.956 182.561 124.981C179.84 124.006 183.751 133.065 181.727 133.065C179.703 133.065 179.826 128.161 178.295 129.998C176.763 131.836 180.619 137.517 180.619 137.517C180.619 137.517 175.149 134.691 173.864 129.758C172.579 124.826 178.65 120.204 184.462 120.685C190.274 121.165 190.383 124.981 190.383 124.981Z" fill="#2A343D"/>
<defs>
<linearGradient id="paint0_linear_1_3" x1="232.967" y1="315.767" x2="197.674" y2="286.825" gradientUnits="userSpaceOnUse">
<stop stop-color="white" stop-opacity="0"/>
<stop offset="1" stop-color="#ED1C24"/>
</linearGradient>
<linearGradient id="paint1_linear_1_3" x1="396.288" y1="309.35" x2="360.995" y2="280.408" gradientUnits="userSpaceOnUse">
<stop stop-color="white" stop-opacity="0"/>
<stop offset="1" stop-color="#ED1C24"/>
</linearGradient>
<linearGradient id="paint2_linear_1_3" x1="325.752" y1="351.722" x2="290.459" y2="322.78" gradientUnits="userSpaceOnUse">
<stop stop-color="white" stop-opacity="0"/>
<stop offset="1" stop-color="#ED1C24"/>
</linearGradient>
</defs>
</svg>
